{
  "accessors": [
    {
      "bufferView": 2,
      "componentType": 5126,
      "count": 65532,
      "max": [
        0.42487600445747375,
        1.9105370044708252,
        0.5994606614112854
      ],
      "min": [
        -0.5637313723564148,
        0.012082040309906006,
        -0.5755643248558044
      ],
      "type": "VEC3"
    },
    {
      "bufferView": 2,
      "byteOffset": 786384,
      "componentType": 5126,
      "count": 65532,
      "max": [
        0.999977707862854,
        0.9999029636383057,
        0.9999927282333374
      ],
      "min": [
        -0.9999833703041077,
        -0.9999997615814209,
        -0.9999401569366455
      ],
      "type": "VEC3"
    },
    {
      "bufferView": 1,
      "componentType": 5126,
      "count": 65532,
      "max": [
        0.9975190162658691,
        0.9959819912910461
      ],
      "min": [
        8.399999933317304e-05,
        0.0016279816627502441
      ],
      "type": "VEC2"
    },
    {
      "bufferView": 0,
      "componentType": 5125,
      "count": 342720,
      "type": "SCALAR"
    },
    {
      "bufferView": 2,
      "byteOffset": 1572768,
      "componentType": 5126,
      "count": 65532,
      "max": [
        0.4534606337547302,
        1.8466240167617798,
        0.6914644837379456
      ],
      "min": [
        -0.6171028017997742,
        0.012066006660461426,
        -0.522251307964325
      ],
      "type": "VEC3"
    },
    {
      "bufferView": 2,
      "byteOffset": 2359152,
      "componentType": 5126,
      "count": 65532,
      "max": [
        0.99994957447052,
        0.9999970197677612,
        0.9999990463256836
      ],
      "min": [
        -0.9999000430107117,
        -1.0,
        -0.9999839663505554
      ],
      "type": "VEC3"
    },
    {
      "bufferView": 1,
      "byteOffset": 524256,
      "componentType": 5126,
      "count": 65532,
      "max": [
        0.9973049759864807,
        0.9993060231208801
      ],
      "min": [
        0.004007999785244465,
        0.000420987606048584
      ],
      "type": "VEC2"
    },
    {
      "bufferView": 0,
      "byteOffset": 1370880,
      "componentType": 5125,
      "count": 343596,
      "type": "SCALAR"
    },
    {
      "bufferView": 2,
      "byteOffset": 3145536,
      "componentType": 5126,
      "count": 65532,
      "max": [
        0.4441356062889099,
        1.9125800132751465,
        0.6413929462432861
      ],
      "min": [
        -0.6069303154945374,
        0.012142002582550049,
        -0.6557279229164124
      ],
      "type": "VEC3"
    },
    {
      "bufferView": 2,
      "byteOffset": 3931920,
      "componentType": 5126,
      "count": 65532,
      "max": [
        0.9999957084655762,
        0.9998895525932312,
        0.9999977350234985
      ],
      "min": [
        -0.9999902248382568,
        -0.9999999403953552,
        -0.9999918937683105
      ],
      "type": "VEC3"
    },
    {
      "bufferView": 1,
      "byteOffset": 1048512,
      "componentType": 5126,
      "count": 65532,
      "max": [
        0.9987789988517761,
        0.9984040260314941
      ],
      "min": [
        0.003109999932348728,
        0.0030930042266845703
      ],
      "type": "VEC2"
    },
    {
      "bufferView": 0,
      "byteOffset": 2745264,
      "componentType": 5125,
      "count": 345837,
      "type": "SCALAR"
    },
    {
      "bufferView": 2,
      "byteOffset": 4718304,
      "componentType": 5126,
      "count": 65532,
      "max": [
        0.45956334471702576,
        1.9156429767608643,
        0.6639764904975891
      ],
      "min": [
        -0.6049613356590271,
        0.01203000545501709,
        -0.5723170042037964
      ],
      "type": "VEC3"
    },
    {
      "bufferView": 2,
      "byteOffset": 5504688,
      "componentType": 5126,
      "count": 65532,
      "max": [
        0.9999441504478455,
        0.9999942183494568,
        0.9999731183052063
      ],
      "min": [
        -0.9999866485595703,
        -0.9999994039535522,
        -0.9999569654464722
      ],
      "type": "VEC3"
    },
    {
      "bufferView": 1,
      "byteOffset": 1572768,
      "componentType": 5126,
      "count": 65532,
      "max": [
        0.9957879781723022,
        0.9954829812049866
      ],
      "min": [
        0.005485000088810921,
        0.0021529793739318848
      ],
      "type": "VEC2"
    },
    {
      "bufferView": 0,
      "byteOffset": 4128612,
      "componentType": 5125,
      "count": 345381,
      "type": "SCALAR"
    },
    {
      "bufferView": 2,
      "byteOffset": 6291072,
      "componentType": 5126,
      "count": 65532,
      "max": [
        0.44022440910339355,
        1.906345009803772,
        0.646048903465271
      ],
      "min": [
        -0.6057974696159363,
        0.01202702522277832,
        -0.6351290345191956
      ],
      "type": "VEC3"
    },
    {
      "bufferView": 2,
      "byteOffset": 7077456,
      "componentType": 5126,
      "count": 65532,
      "max": [
        0.9999556541442871,
        0.9999668598175049,
        0.9999871850013733
      ],
      "min": [
        -0.9999948740005493,
        -1.0,
        -0.9999747276306152
      ],
      "type": "VEC3"
    },
    {
      "bufferView": 1,
      "byteOffset": 2097024,
      "componentType": 5126,
      "count": 65532,
      "max": [
        0.9987879991531372,
        0.9999650120735168
      ],
      "min": [
        0.001567999948747456,
        0.0031350255012512207
      ],
      "type": "VEC2"
    },
    {
      "bufferView": 0,
      "byteOffset": 5510136,
      "componentType": 5125,
      "count": 342066,
      "type": "SCALAR"
    },
    {
      "bufferView": 2,
      "byteOffset": 7863840,
      "componentType": 5126,
      "count": 65532,
      "max": [
        0.41457390785217285,
        1.8713910579681396,
        0.6366680264472961
      ],
      "min": [
        -0.2546546459197998,
        0.02063000202178955,
        -0.563978374004364
      ],
      "type": "VEC3"
    },
    {
      "bufferView": 2,
      "byteOffset": 8650224,
      "componentType": 5126,
      "count": 65532,
      "max": [
        0.999997615814209,
        0.999996542930603,
        0.9999539256095886
      ],
      "min": [
        -0.9998434782028198,
        -0.9999757409095764,
        -0.9999615550041199
      ],
      "type": "VEC3"
    },
    {
      "bufferView": 1,
      "byteOffset": 2621280,
      "componentType": 5126,
      "count": 65532,
      "max": [
        0.9989230036735535,
        0.9999240040779114
      ],
      "min": [
        2.700000004551839e-05,
        0.0010070204734802246
      ],
      "type": "VEC2"
    },
    {
      "bufferView": 0,
      "byteOffset": 6878400,
      "componentType": 5125,
      "count": 326439,
      "type": "SCALAR"
    },
    {
      "bufferView": 2,
      "byteOffset": 9436608,
      "componentType": 5126,
      "count": 65532,
      "max": [
        0.4580391049385071,
        1.9155550003051758,
        0.6933317184448242
      ],
      "min": [
        -0.5945541262626648,
        0.012032032012939453,
        -0.48530620336532593
      ],
      "type": "VEC3"
    },
    {
      "bufferView": 2,
      "byteOffset": 10222992,
      "componentType": 5126,
      "count": 65532,
      "max": [
        0.9999984502792358,
        0.9999133348464966,
        0.9999332427978516
      ],
      "min": [
        -0.9999484419822693,
        -0.9999995827674866,
        -0.999986469745636
      ],
      "type": "VEC3"
    },
    {
      "bufferView": 1,
      "byteOffset": 3145536,
      "componentType": 5126,
      "count": 65532,
      "max": [
        0.9984650015830994,
        0.9999989867210388
      ],
      "min": [
        0.0025919999461621046,
        0.0015140175819396973
      ],
      "type": "VEC2"
    },
    {
      "bufferView": 0,
      "byteOffset": 8184156,
      "componentType": 5125,
      "count": 310491,
      "type": "SCALAR"
    },
    {
      "bufferView": 2,
      "byteOffset": 11009376,
      "componentType": 5126,
      "count": 65532,
      "max": [
        0.35055074095726013,
        1.880979061126709,
        0.693289577960968
      ],
      "min": [
        -0.359854131937027,
        0.012032032012939453,
        -0.6256143450737
      ],
      "type": "VEC3"
    },
    {
      "bufferView": 2,
      "byteOffset": 11795760,
      "componentType": 5126,
      "count": 65532,
      "max": [
        0.9999921917915344,
        0.999996542930603,
        0.9998571276664734
      ],
      "min": [
        -0.9996902942657471,
        -1.0,
        -0.9999633431434631
      ],
      "type": "VEC3"
    },
    {
      "bufferView": 1,
      "byteOffset": 3669792,
      "componentType": 5126,
      "count": 65532,
      "max": [
        0.9988909959793091,
        0.9999960064888
      ],
      "min": [
        0.0005520000122487545,
        3.0994415283203125e-05
      ],
      "type": "VEC2"
    },
    {
      "bufferView": 0,
      "byteOffset": 9426120,
      "componentType": 5125,
      "count": 274263,
      "type": "SCALAR"
    },
    {
      "bufferView": 2,
      "byteOffset": 12582144,
      "componentType": 5126,
      "count": 65533,
      "max": [
        0.0878850594162941,
        1.758857011795044,
        0.4990293085575104
      ],
      "min": [
        -0.6171028017997742,
        0.012015044689178467,
        -0.6447737216949463
      ],
      "type": "VEC3"
    },
    {
      "bufferView": 2,
      "byteOffset": 13368540,
      "componentType": 5126,
      "count": 65533,
      "max": [
        0.9999861717224121,
        0.9999411106109619,
        0.9999927282333374
      ],
      "min": [
        -0.9999655485153198,
        -0.9999998807907104,
        -0.999996542930603
      ],
      "type": "VEC3"
    },
    {
      "bufferView": 1,
      "byteOffset": 4194048,
      "componentType": 5126,
      "count": 65533,
      "max": [
        0.9989619851112366,
        0.9999679923057556
      ],
      "min": [
        0.002626999979838729,
        3.993511199951172e-06
      ],
      "type": "VEC2"
    },
    {
      "bufferView": 0,
      "byteOffset": 10523172,
      "componentType": 5125,
      "count": 269562,
      "type": "SCALAR"
    },
    {
      "bufferView": 2,
      "byteOffset": 14154936,
      "componentType": 5126,
      "count": 15344,
      "max": [
        0.1496609002351761,
        1.8039240837097168,
        0.5300300717353821
      ],
      "min": [
        -0.16451489925384521,
        0.012203991413116455,
        -0.6424528956413269
      ],
      "type": "VEC3"
    },
    {
      "bufferView": 2,
      "byteOffset": 14339064,
      "componentType": 5126,
      "count": 15344,
      "max": [
        0.9999679923057556,
        0.9999668598175049,
        0.999873697757721
      ],
      "min": [
        -0.9999454021453857,
        -0.9999762773513794,
        -0.9999176859855652
      ],
      "type": "VEC3"
    },
    {
      "bufferView": 1,
      "byteOffset": 4718312,
      "componentType": 5126,
      "count": 15344,
      "max": [
        0.9948859810829163,
        0.9998210072517395
      ],
      "min": [
        6.0999998822808266e-05,
        7.098913192749023e-05
      ],
      "type": "VEC2"
    },
    {
      "bufferView": 0,
      "byteOffset": 11601420,
      "componentType": 5125,
      "count": 47403,
      "type": "SCALAR"
    }
  ],
  "asset": {
    "extras": {
      "author": "Brian Trepanier (https://sketchfab.com/CMBC)",
      "license": "CC-BY-4.0 (http://creativecommons.org/licenses/by/4.0/)",
      "source": "https://sketchfab.com/3d-models/sir-caelen-38760d83382747ff8f3bf04534d82be4",
      "title": "Sir Caelen"
    },
    "generator": "Sketchfab-16.74.0",
    "version": "2.0"
  },
  "bufferViews": [
    {
      "buffer": 0,
      "byteLength": 11791032,
      "name": "floatBufferViews",
      "target": 34963
    },
    {
      "buffer": 0,
      "byteLength": 4841064,
      "byteOffset": 11791032,
      "byteStride": 8,
      "name": "floatBufferViews",
      "target": 34962
    },
    {
      "buffer": 0,
      "byteLength": 14523192,
      "byteOffset": 16632096,
      "byteStride": 12,
      "name": "floatBufferViews",
      "target": 34962
    }
  ],
  "buffers": [
    {
      "byteLength": 31155288,
      "uri": "scene.bin"
    }
  ],
  "extensionsUsed": [
    "KHR_materials_specular"
  ],
  "images": [
    {
      "uri": "textures/Material_0_baseColor.jpeg"
    }
  ],
  "materials": [
    {
      "doubleSided": true,
      "extensions": {
        "KHR_materials_specular": {
          "specularColorFactor": [
            1.0,
            1.0,
            1.0
          ],
          "specularFactor": 0.0
        }
      },
      "name": "Material_0",
      "pbrMetallicRoughness": {
        "baseColorTexture": {
          "index": 0
        },
        "metallicFactor": 0.0,
        "roughnessFactor": 0.5
      }
    }
  ],
  "meshes": [
    {
      "name": "Object_0",
      "primitives": [
        {
          "attributes": {
            "NORMAL": 1,
            "POSITION": 0,
            "TEXCOORD_0": 2
          },
          "indices": 3,
          "material": 0,
          "mode": 4
        }
      ]
    },
    {
      "name": "Object_1",
      "primitives": [
        {
          "attributes": {
            "NORMAL": 5,
            "POSITION": 4,
            "TEXCOORD_0": 6
          },
          "indices": 7,
          "material": 0,
          "mode": 4
        }
      ]
    },
    {
      "name": "Object_2",
      "primitives": [
        {
          "attributes": {
            "NORMAL": 9,
            "POSITION": 8,
            "TEXCOORD_0": 10
          },
          "indices": 11,
          "material": 0,
          "mode": 4
        }
      ]
    },
    {
      "name": "Object_3",
      "primitives": [
        {
          "attributes": {
            "NORMAL": 13,
            "POSITION": 12,
            "TEXCOORD_0": 14
          },
          "indices": 15,
          "material": 0,
          "mode": 4
        }
      ]
    },
    {
      "name": "Object_4",
      "primitives": [
        {
          "attributes": {
            "NORMAL": 17,
            "POSITION": 16,
            "TEXCOORD_0": 18
          },
          "indices": 19,
          "material": 0,
          "mode": 4
        }
      ]
    },
    {
      "name": "Object_5",
      "primitives": [
        {
          "attributes": {
            "NORMAL": 21,
            "POSITION": 20,
            "TEXCOORD_0": 22
          },
          "indices": 23,
          "material": 0,
          "mode": 4
        }
      ]
    },
    {
      "name": "Object_6",
      "primitives": [
        {
          "attributes": {
            "NORMAL": 25,
            "POSITION": 24,
            "TEXCOORD_0": 26
          },
          "indices": 27,
          "material": 0,
          "mode": 4
        }
      ]
    },
    {
      "name": "Object_7",
      "primitives": [
        {
          "attributes": {
            "NORMAL": 29,
            "POSITION": 28,
            "TEXCOORD_0": 30
          },
          "indices": 31,
          "material": 0,
          "mode": 4
        }
      ]
    },
    {
      "name": "Object_8",
      "primitives": [
        {
          "attributes": {
            "NORMAL": 33,
            "POSITION": 32,
            "TEXCOORD_0": 34
          },
          "indices": 35,
          "material": 0,
          "mode": 4
        }
      ]
    },
    {
      "name": "Object_9",
      "primitives": [
        {
          "attributes": {
            "NORMAL": 37,
            "POSITION": 36,
            "TEXCOORD_0": 38
          },
          "indices": 39,
          "material": 0,
          "mode": 4
        }
      ]
    }
  ],
  "nodes": [
    {
      "children": [
        1
      ],
      "matrix": [
        1.0,
        0.0,
        0.0,
        0.0,
        0.0,
        2.220446049250313e-16,
        -1.0,
        0.0,
        0.0,
        1.0,
        2.220446049250313e-16,
        0.0,
        0.0,
        0.0,
        0.0,
        1.0
      ],
      "name": "Sketchfab_model"
    },
    {
      "children": [
        2
      ],
      "name": "root"
    },
    {
      "children": [
        3
      ],
      "matrix": [
        1.0,
        0.0,
        0.0,
        0.0,
        0.0,
        2.220446049250313e-16,
        1.0,
        0.0,
        0.0,
        -1.0,
        2.220446049250313e-16,
        0.0,
        0.0,
        0.0,
        0.0,
        1.0
      ],
      "name": "GLTF_SceneRootNode"
    },
    {
      "children": [
        4,
        5,
        6,
        7,
        8,
        9,
        10,
        11,
        12,
        13
      ],
      "name": "Mesh_0_0"
    },
    {
      "mesh": 0,
      "name": "Object_4"
    },
    {
      "mesh": 1,
      "name": "Object_5"
    },
    {
      "mesh": 2,
      "name": "Object_6"
    },
    {
      "mesh": 3,
      "name": "Object_7"
    },
    {
      "mesh": 4,
      "name": "Object_8"
    },
    {
      "mesh": 5,
      "name": "Object_9"
    },
    {
      "mesh": 6,
      "name": "Object_10"
    },
    {
      "mesh": 7,
      "name": "Object_11"
    },
    {
      "mesh": 8,
      "name": "Object_12"
    },
    {
      "mesh": 9,
      "name": "Object_13"
    }
  ],
  "samplers": [
    {
      "magFilter": 9729,
      "minFilter": 9987,
      "wrapS": 10497,
      "wrapT": 10497
    }
  ],
  "scene": 0,
  "scenes": [
    {
      "name": "Sketchfab_Scene",
      "nodes": [
        0
      ]
    }
  ],
  "textures": [
    {
      "sampler": 0,
      "source": 0
    }
  ]
}
